<?xml version="1.0" standalone="no"?>
<!DOCTYPE svg PUBLIC "-//W3C//DTD SVG 20010904//EN"
 "http://www.w3.org/TR/2001/REC-SVG-20010904/DTD/svg10.dtd">
<svg version="1.0" xmlns="http://www.w3.org/2000/svg"
 width="512.000000pt" height="512.000000pt" viewBox="0 0 512.000000 512.000000"
 preserveAspectRatio="xMidYMid meet">
<metadata>
Created by potrace 1.14, written by Peter Selinger 2001-2017
</metadata>
<g transform="translate(0.000000,512.000000) scale(0.100000,-0.100000)"
fill="#000000" stroke="none">
<path d="M903 3800 c-13 -5 -32 -24 -43 -42 -18 -31 -20 -51 -20 -271 0 -345
-18 -327 325 -327 345 0 327 -19 323 341 l-3 251 -33 29 -32 29 -248 -1 c-136
0 -257 -4 -269 -9z m477 -315 l0 -215 -215 0 -215 0 0 215 0 215 215 0 215 0
0 -215z"/>
<path d="M1810 3795 c-51 -27 -55 -48 -55 -311 0 -231 1 -244 21 -271 11 -15
32 -34 45 -40 19 -10 250 -13 1021 -13 l998 0 17 26 c15 24 15 29 2 53 l-15
26 -989 5 -990 5 -3 213 -2 212 1155 0 1155 0 0 -253 c0 -233 1 -255 18 -270
24 -22 55 -21 76 2 15 17 17 46 14 296 l-3 277 -33 29 -32 29 -1188 0 c-990
-1 -1191 -3 -1212 -15z"/>
<path d="M924 2880 c-16 -5 -41 -21 -55 -36 l-24 -26 0 -258 0 -258 24 -26
c37 -40 79 -46 304 -46 227 0 256 6 295 55 21 27 22 36 22 276 l0 249 -34 38
-34 37 -234 2 c-128 1 -247 -2 -264 -7z m456 -320 l0 -220 -215 0 -215 0 0
220 0 220 215 0 215 0 0 -220z"/>
<path d="M1820 2872 c-66 -33 -71 -56 -68 -322 3 -209 5 -239 21 -264 39 -58
-1 -56 1072 -56 972 0 985 0 1005 20 25 25 26 52 2 73 -17 15 -104 17 -1003
19 l-984 3 0 215 0 215 1150 0 1150 0 5 -260 5 -259 26 -15 c24 -13 29 -13 53
2 l26 17 0 271 c0 237 -2 274 -17 300 -37 62 32 59 -1245 59 -1087 0 -1165 -1
-1198 -18z"/>
<path d="M898 1944 c-54 -29 -58 -51 -58 -309 0 -343 -19 -325 334 -325 l246
0 32 29 33 29 3 251 c4 360 22 341 -325 341 -191 -1 -243 -4 -265 -16z m482
-309 l0 -215 -215 0 -215 0 0 215 0 215 215 0 215 0 0 -215z"/>
<path d="M1821 1947 c-13 -6 -34 -25 -45 -40 -20 -27 -21 -40 -21 -271 0 -265
4 -284 57 -312 23 -12 184 -14 1026 -14 955 0 1000 1 1015 18 22 25 21 48 -3
72 -20 20 -33 20 -1005 20 l-985 0 0 215 0 215 1155 0 1155 0 0 -254 c0 -218
2 -257 16 -270 22 -23 71 -20 84 3 6 12 10 120 10 281 0 214 -3 266 -15 290
-33 64 41 60 -1247 60 -911 0 -1178 -3 -1197 -13z"/>
</g>
</svg>
